<svg viewBox="-39 -50 78 100" fill="none">
  <path fill-rule="evenodd" clip-rule="evenodd" fill="currentColor" d="M-6.35,19.89c-0.65,0,-1.27,-0.27,-1.72,-0.75l-9.01,-9.66c-0.89,-0.95,-0.84,-2.44,0.11,-3.33 0.95,-0.89,2.44,-0.84,3.33,0.11l7.02,7.52c2.01,-2.92,5.58,-8.1,9.15,-13.27 2.71,-3.92,5.42,-7.84,7.46,-10.77 1.02,-1.47,1.88,-2.69,2.48,-3.55 1.06,-1.51,2.27,-3.22,4.2,-1.92 0.73,0.49,1.73,1.63,0.31,3.79 -0.12,0.18,-0.25,0.33,-0.4,0.47 -2.7,3.8,-13.59,19.58,-20.99,30.33 -0.4,0.59,-1.05,0.96,-1.76,1.01 -0.06,0,-0.12,0,-0.17,0Z" />
</svg>
