<svg viewBox="-36 -53 72 106" fill="none">
  <path fill-rule="evenodd" clip-rule="evenodd" fill="currentColor" d="M10.25,-29.185l-1.53,-0.5 10.05,-8.54c1.3,-1.3,1.3,-3.48,-0.04,-4.83 -1.37,-1.36,-3.56,-1.36,-4.9,0l-10.36,8.78v-14.78c0,-1.91,-1.55,-3.46,-3.46,-3.46s-3.46,1.55,-3.46,3.46v14.31l-9.72,-8.26c-0.7,-0.71,-1.62,-1.06,-2.52,-1.06s-1.76,0.33,-2.42,1.01c-1.37,1.35,-1.37,3.53,0,4.9l9.86,8.38 -1.6,0.45c-5.67,1.62,-10.71,4.54,-14.95,8.66 -6.99,6.78,-10.85,15.86,-10.85,25.58v11.94c0,19.65,16.01,35.66,35.66,35.66s35.64,-16.01,35.64,-35.66v-10.59c0,-16.15,-10.45,-30.75,-25.4,-35.45ZM28.73,16.855c0,15.84,-12.88,28.71,-28.72,28.71s-28.71,-12.87,-28.71,-28.71v-11.94c0,-7.86,3.08,-15.18,8.73,-20.62 5.37,-5.22,12.47,-8.09,19.98,-8.09h0.87c15.37,0.44,27.85,13.93,27.85,30.06v10.59Z" />
  <path fill="currentColor" d="M0.01,3.015c-3.69,0,-5.48,1.62,-5.48,4.96 0,2.4,1.93,6.62,3.74,9.77 0.73,1.25,2.78,1.25,3.51,0 1.81,-3.15,3.74,-7.37,3.74,-9.77 0,-3.34,-1.81,-4.96,-5.51,-4.96Z" />
  <path fill="currentColor" d="M-7.64,-8.785c-1.79,0,-3.22,1.46,-3.22,3.23s1.43,3.22,3.22,3.22 3.23,-1.43,3.23,-3.22 -1.46,-3.23,-3.23,-3.23Z" />
  <path fill="currentColor" d="M7.71,-8.785c-1.77,0,-3.2,1.46,-3.2,3.23s1.43,3.22,3.2,3.22 3.25,-1.43,3.25,-3.22 -1.46,-3.23,-3.25,-3.23Z" />
</svg>
