<svg viewBox="-39 -50 78 100" fill="none">
  <path fill-rule="evenodd" clip-rule="evenodd" fill="currentColor" d="M28.58,-9.79l-7.09,-5.41c-0.43,-0.33,-0.98,-0.46,-1.51,-0.36 -0.53,0.1,-0.99,0.42,-1.27,0.89l-5.6,9.28 -2.5,-5.09c-0.32,-0.65,-0.98,-1.06,-1.71,-1.06h-5.65l4.75,-13.79c0.28,-0.82,-0.03,-1.73,-0.76,-2.21l-14.88,-9.35c-0.88,-0.57,-2.06,-0.33,-2.63,0.55 -0.57,0.88,-0.33,2.06,0.55,2.63l13.64,8.54 -4.89,14.19 -6.72,3.54 -5.2,-8.78c-0.35,-0.59,-0.97,-0.95,-1.69,-0.93 -0.69,0.02,-1.32,0.41,-1.63,1.03l-8.86,17.16c-0.24,0.47,-0.28,1.02,-0.1,1.52 0.18,0.5,0.56,0.9,1.06,1.1l10.73,4.47 -1.22,7.78 -9.24,0.58c-0.65,0.04,-1.23,0.41,-1.54,0.98 -0.31,0.57,-0.32,1.26,0,1.83l4.05,7.44 -0.3,4.52c-0.04,1.05,0.77,1.94,1.82,1.98 0.03,0,0.05,0,0.08,0 1.01,0,1.85,-0.8,1.9,-1.82l0.32,-5.04c0.01,-0.34,-0.06,-0.69,-0.23,-0.99l-2.88,-5.28 7.79,-0.49c0.89,-0.06,1.62,-0.72,1.76,-1.6l1.68,-10.77c0.14,-0.87,-0.34,-1.71,-1.15,-2.05l-10.21,-4.25 6.34,-12.28 4.38,7.38c0.52,0.87,1.62,1.18,2.52,0.71l8.57,-4.51h6.66l3.51,7.15c0.31,0.62,0.93,1.03,1.62,1.06 0.03,0,0.06,0,0.08,0 0.66,0,1.28,-0.35,1.63,-0.92l6.3,-10.44 5.4,4.12c0.83,0.64,2.03,0.48,2.66,-0.36 0.64,-0.83,0.48,-2.03,-0.36,-2.66Z" />
</svg>
