<svg viewBox="-39 -50 78 100" fill="none">
  <path fill-rule="evenodd" clip-rule="evenodd" fill="currentColor" d="M-16.52,1.68c0.31,0.31,0.71,0.46,1.12,0.46s0.81,-0.15,1.12,-0.46l3.88,-3.88 3.88,3.88c0.31,0.31,0.71,0.46,1.12,0.46s0.81,-0.15,1.12,-0.46c0.62,-0.62,0.62,-1.62,0,-2.24l-3.88,-3.88 3.88,-3.88c0.62,-0.62,0.62,-1.62,0,-2.24 -0.62,-0.62,-1.62,-0.62,-2.24,0l-3.88,3.88 -3.88,-3.88c-0.62,-0.62,-1.62,-0.62,-2.24,0 -0.62,0.62,-0.62,1.62,0,2.24l3.88,3.88 -3.88,3.88c-0.62,0.62,-0.62,1.62,0,2.24Z M6.12,1.68c0.31,0.31,0.71,0.46,1.12,0.46s0.81,-0.15,1.12,-0.46l3.88,-3.88 3.88,3.88c0.31,0.31,0.71,0.46,1.12,0.46s0.81,-0.15,1.12,-0.46c0.62,-0.62,0.62,-1.62,0,-2.24l-3.88,-3.88 3.88,-3.88c0.62,-0.62,0.62,-1.62,0,-2.24 -0.62,-0.62,-1.62,-0.62,-2.24,0l-3.88,3.88 -3.88,-3.88c-0.62,-0.62,-1.62,-0.62,-2.24,0 -0.62,0.62,-0.62,1.62,0,2.24l3.88,3.88 -3.88,3.88c-0.62,0.62,-0.62,1.62,0,2.24Z M18.67,17.83h0c-0.33,-0.23,-8.08,-5.52,-17.75,-5.52s-17.42,5.29,-17.75,5.52c-0.94,0.65,-1.18,1.95,-0.52,2.9 0.39,0.56,1.03,0.9,1.71,0.9 0.42,0,0.83,-0.13,1.18,-0.37 0.07,-0.05,7.03,-4.77,15.37,-4.77s15.3,4.73,15.38,4.78c0.94,0.65,2.24,0.41,2.9,-0.53 0.65,-0.94,0.42,-2.24,-0.52,-2.9Z" />
</svg>
