<svg viewBox="-55 -54 110 108" fill="none">
  <path fill-rule="evenodd" clip-rule="evenodd" fill="currentColor" d="M41.645,21.785l-4.28,-9.8 -9.52,4.24c0.11,-1.2,0.17,-2.44,0.17,-3.71 0,-4.15,-0.63,-8.29,-1.87,-12.3 -0.73,-2.34,-1.66,-4.73,-2.76,-7.1l-2.21,-4.72 -7.37,11.03c0.03,-0.5,0.04,-1,0.04,-1.5v-7.81c0,-12.17,-7.89,-23.14,-19.19,-26.7l-0.18,-0.06 6.71,-5.7c0.57,-0.58,0.89,-1.39,0.88,-2.19 0,-0.81,-0.33,-1.58,-0.91,-2.15 -0.57,-0.6,-1.34,-0.93,-2.18,-0.94 -0.81,0,-1.61,0.34,-2.18,0.9l-6.72,5.7v-9.73c0,-1.7,-1.4,-3.09,-3.12,-3.09s-3.08,1.39,-3.08,3.09v9.41l-6.26,-5.31c-0.62,-0.63,-1.4,-0.97,-2.24,-0.97s-1.6,0.33,-2.18,0.93c-1.22,1.22,-1.22,3.14,0.03,4.42l6.52,5.52 -0.18,0.05c-4.22,1.21,-8.12,3.48,-11.28,6.54 -5.27,5.08,-8.17,11.92,-8.17,19.26v8.83c0,5.96,1.98,11.71,5.62,16.4l-7.67,-5.67 -12.43,10.12 0.4,1.77c0.3,1.39,0.67,2.75,1.11,4.16 5.39,17.42,21.27,29.13,39.52,29.13 4.12,0,8.23,-0.62,12.21,-1.85 1.72,-0.53,3.38,-1.17,4.95,-1.89 2.29,1.55,4.79,2.64,7.45,3.23 1.52,0.35,3.09,0.52,4.68,0.52 14.74,0,28.05,-14.92,35.58,-28.88l2.83,-5.24 -12.73,2.07ZM43.245,27.465c-7.51,11.58,-19.32,22.68,-30.68,20.13h0c-0.9,-0.2,-1.81,-0.5,-2.69,-0.88 5.58,-3.78,10.19,-8.94,13.36,-14.97 1.44,-2.72,2.57,-5.59,3.36,-8.53l7.76,-3.46 3.73,8.55 5.15,-0.84ZM7.655,-2.075c0,0.86,-0.05,1.71,-0.15,2.53l-8.59,-6.24 -11.03,10.87 -9.65,-5.23 -7.36,10.06 -0.34,0.48c-2.71,-3.57,-4.19,-7.97,-4.19,-12.47v-8.83c0,-5.67,2.23,-10.93,6.29,-14.81 3.85,-3.76,8.95,-5.84,14.35,-5.84h0.63c11.06,0.32,20.05,10.04,20.05,21.67v7.81ZM-20.065,7.435l8.96,4.87 10.58,-10.43 13.3,9.65 7.31,-10.94c0.16,0.46,0.31,0.92,0.45,1.37 1.75,5.63,2.07,11.62,0.94,17.34 -0.18,0.97,-0.42,1.96,-0.7,2.93 -0.32,1.1,-0.67,2.11,-1.06,3.1 -0.48,1.24,-1.05,2.48,-1.68,3.68 -3.17,6.03,-7.95,10.97,-13.82,14.29 -0.79,0.45,-1.52,0.83,-2.27,1.18 -0.72,0.36,-1.49,0.69,-2.35,1.02h0c-0.86,0.35,-1.66,0.64,-2.46,0.88 -18.68,5.79,-38.6,-4.72,-44.39,-23.41 -0.21,-0.66,-0.39,-1.31,-0.56,-1.96l6.07,-4.93 9.97,7.38 11.71,-16.01Z" />
  <path fill="currentColor" d="M-17.715,-8.635c0,2.4,2.18,6.37,2.85,7.53 0.38,0.66,1.09,1.07,1.85,1.07s1.48,-0.41,1.86,-1.07c0.67,-1.16,2.85,-5.13,2.85,-7.53 0,-1.97,-0.82,-4.31,-4.71,-4.31s-4.7,2.34,-4.7,4.31Z" />
  <circle cx="-18.66" cy="-18.63" r="2.38" fill="currentColor" />
  <circle cx="-7.32" cy="-18.63" r="2.38" fill="currentColor" />
</svg>
