<svg viewBox="-39 -50 78 100" fill="none">
  <path fill-rule="evenodd" clip-rule="evenodd" fill="currentColor" d="M13.16,0.3h-10.11v-10.11c0,-0.85,-0.34,-1.61,-0.9,-2.16 -0.55,-0.56,-1.31,-0.9,-2.16,-0.9 -1.68,0,-3.05,1.37,-3.05,3.06v10.11h-10.11c-0.85,0,-1.61,0.34,-2.16,0.9 -0.56,0.55,-0.9,1.31,-0.9,2.15 0,1.69,1.37,3.06,3.06,3.06h10.11v10.11c0,0.84,0.34,1.61,0.9,2.16 0.55,0.55,1.31,0.89,2.15,0.89 1.69,0,3.06,-1.36,3.06,-3.05v-10.11h10.11c0.84,0,1.61,-0.34,2.16,-0.9 0.56,-0.55,0.9,-1.31,0.9,-2.16 0,-1.68,-1.37,-3.05,-3.06,-3.05Z" />
</svg>
