<svg viewBox="-39 -50 78 100" fill="none">
  <path fill-rule="evenodd" clip-rule="evenodd" fill="currentColor" d="M2.52,15.22c-1.3,0,-2.35,-1.05,-2.35,-2.35v-5.01c0,-0.8,0.06,-1.49,0.18,-2.1 0.14,-0.69,0.36,-1.32,0.68,-1.89 0.28,-0.5,0.63,-1,1.05,-1.46 0.32,-0.36,0.7,-0.77,1.15,-1.23 0.62,-0.67,1.24,-1.34,1.82,-1.97 0.49,-0.53,0.93,-1.1,1.31,-1.69 0.34,-0.53,0.62,-1.13,0.82,-1.78 0.19,-0.6,0.29,-1.35,0.29,-2.21 0,-1.28,-0.19,-2.41,-0.56,-3.36 -0.36,-0.91,-0.83,-1.65,-1.45,-2.24 -0.63,-0.6,-1.35,-1.06,-2.22,-1.38 -0.88,-0.33,-1.87,-0.5,-2.93,-0.5 -1.15,0,-2.2,0.18,-3.13,0.53 -0.91,0.35,-1.69,0.83,-2.38,1.49 -0.69,0.66,-1.27,1.49,-1.71,2.47 -0.47,1.03,-0.78,2.25,-0.93,3.61 -0.14,1.29,-1.31,2.22,-2.6,2.08 -1.29,-0.14,-2.22,-1.31,-2.08,-2.6 0.21,-1.85,0.65,-3.54,1.32,-5.02 0.69,-1.53,1.62,-2.85,2.75,-3.94 1.14,-1.09,2.47,-1.93,3.97,-2.49 1.46,-0.55,3.08,-0.83,4.8,-0.83 1.63,0,3.17,0.27,4.59,0.81 1.45,0.55,2.74,1.36,3.82,2.4 1.1,1.06,1.96,2.38,2.56,3.92 0.59,1.5,0.88,3.2,0.88,5.07 0,1.35,-0.17,2.58,-0.52,3.65 -0.33,1.03,-0.78,2,-1.34,2.87 -0.52,0.82,-1.13,1.61,-1.81,2.35 -0.59,0.64,-1.22,1.32,-1.88,2.03 -0.43,0.44,-0.76,0.81,-1.05,1.12 -0.18,0.2,-0.33,0.41,-0.44,0.6 -0.08,0.14,-0.14,0.32,-0.18,0.53 -0.04,0.21,-0.09,0.58,-0.09,1.18v5.01c0,1.3,-1.05,2.35,-2.35,2.35Z M2.36,23.45c-1.3,0,-2.35,-1.05,-2.35,-2.35v-0.88c0,-1.3,1.05,-2.35,2.35,-2.35s2.35,1.05,2.35,2.35v0.88c0,1.3,-1.05,2.35,-2.35,2.35Z" />
</svg>
