<svg viewBox="-39 -50 78 100" fill="none">
  <path fill-rule="evenodd" clip-rule="evenodd" fill="currentColor" d="M2.96,1.77l12.84,-12.84c0.92,-0.92,0.92,-2.41,0,-3.33 -0.92,-0.92,-2.41,-0.92,-3.33,0l-12.84,12.84 -12.84,-12.84c-0.92,-0.92,-2.41,-0.92,-3.33,0 -0.92,0.92,-0.92,2.41,0,3.33l12.84,12.84 -12.84,12.84c-0.92,0.92,-0.92,2.41,0,3.33 0.46,0.46,1.06,0.69,1.66,0.69s1.2,-0.23,1.66,-0.69l12.84,-12.84 12.84,12.84c0.46,0.46,1.06,0.69,1.66,0.69s1.2,-0.23,1.66,-0.69c0.92,-0.92,0.92,-2.41,0,-3.33l-12.84,-12.84Z" />
</svg>
